<svg xmlns="http://www.w3.org/2000/svg" xmlns:xlink="http://www.w3.org/1999/xlink" version="1.1" id="svg-5361" x="0px" y="0px" viewBox="0 0 511 511" style="enable-background:new 0 0 511 511;" xml:space="preserve" width="512px" height="512px">
<g>
	<path d="M383.5,144H335V55.5C335,24.897,310.103,0,279.5,0h-48C200.897,0,176,24.897,176,55.5V144h-48.5   c-8.547,0-15.5,6.953-15.5,15.5v336c0,8.547,6.953,15.5,15.5,15.5h256c8.547,0,15.5-6.953,15.5-15.5v-336   C399,150.953,392.047,144,383.5,144z M324.362,335.148c-1.578,0.911-3.005,1.984-4.284,3.177c-1.279-1.194-2.706-2.266-4.284-3.177   c-2.78-1.605-9.822-4.714-18.157-7.837c7.894-2.994,14.488-5.919,17.157-7.46c1.578-0.911,3.005-1.984,4.283-3.177   c1.279,1.194,2.705,2.266,4.283,3.177c2.78,1.605,9.821,4.713,18.155,7.836C333.762,330.621,327.197,333.511,324.362,335.148z    M195.3,335.148c-1.565,0.904-2.982,1.966-4.253,3.148c-1.271-1.182-2.687-2.245-4.252-3.148   c-2.781-1.605-9.823-4.714-18.157-7.837c7.894-2.994,14.489-5.919,17.156-7.46c1.565-0.904,2.982-1.966,4.253-3.148   c1.271,1.182,2.687,2.245,4.252,3.148c2.78,1.605,9.821,4.713,18.155,7.836C204.7,330.621,198.135,333.511,195.3,335.148z    M127,319.023c4.476,0.238,8.047,3.943,8.047,8.477s-3.571,8.239-8.047,8.477V319.023z M144.618,312.496   c9.725-9.191,21.791-18.404,25.176-20.358c1.966-1.135,4.256-1.438,6.45-0.849c2.193,0.587,4.026,1.994,5.161,3.96   c2.343,4.059,0.948,9.268-3.111,11.611c-3.333,1.925-17.181,7.729-30.065,11.581C147.321,316.278,146.099,314.276,144.618,312.496z    M128.855,304.115c-0.611-0.06-1.231-0.091-1.855-0.103v-40.878c3.996,0.693,7.047,4.176,7.047,8.366   C134.047,275.382,132.071,290.845,128.855,304.115z M127,350.989c0.791-0.015,1.571-0.069,2.341-0.16   c3.224,13.283,5.206,28.786,5.206,32.672c0,4.365-3.307,7.967-7.547,8.443V350.989z M148.334,336.291   c13.13,3.845,27.549,9.878,30.959,11.847c4.059,2.344,5.455,7.553,3.112,11.611c-1.135,1.966-2.968,3.373-5.162,3.96   c-2.193,0.588-4.484,0.287-6.45-0.849c-3.358-1.939-15.845-11.447-25.746-20.898C146.393,340.247,147.504,338.342,148.334,336.291z    M247.047,327.5c0-4.687,3.813-8.5,8.5-8.5s8.5,3.813,8.5,8.5s-3.813,8.5-8.5,8.5S247.047,332.187,247.047,327.5z M273.618,312.496   c9.725-9.19,21.792-18.403,25.176-20.358c1.967-1.135,4.258-1.438,6.45-0.849c2.193,0.587,4.026,1.994,5.162,3.96   c2.343,4.059,0.947,9.268-3.111,11.612c-3.334,1.925-17.182,7.729-30.065,11.581C276.322,316.278,275.099,314.276,273.618,312.496z    M257.855,304.115c-0.76-0.074-1.53-0.115-2.308-0.115c-1.448,0-2.864,0.139-4.24,0.391c-3.255-13.331-5.26-28.983-5.26-32.891   c0-4.687,3.813-8.5,8.5-8.5s8.5,3.813,8.5,8.5C263.047,275.381,261.071,290.845,257.855,304.115z M233.657,318.967   c-13.364-3.828-28.369-10.092-31.858-12.106c-4.059-2.344-5.455-7.553-3.111-11.611c1.135-1.966,2.968-3.373,5.162-3.96   c2.193-0.588,4.484-0.286,6.45,0.849c3.522,2.034,16.424,11.91,26.322,21.451C235.41,315.232,234.412,317.039,233.657,318.967z    M198.839,353.3c0.587-2.193,1.994-4.026,3.96-5.162c3.511-2.027,17.948-8.034,30.96-11.846c0.83,2.05,1.941,3.955,3.286,5.671   c-9.817,9.367-22.295,18.906-25.746,20.898c-1.966,1.135-4.257,1.437-6.45,0.849c-2.193-0.587-4.026-1.994-5.161-3.96   S198.251,355.493,198.839,353.3z M251.785,350.695c1.225,0.198,2.481,0.305,3.761,0.305c0.946,0,1.877-0.063,2.794-0.172   c3.224,13.283,5.206,28.786,5.206,32.672c0,4.687-3.813,8.5-8.5,8.5s-8.5-3.813-8.5-8.5   C246.547,379.6,248.542,364.007,251.785,350.695z M277.334,336.291c13.131,3.845,27.549,9.878,30.96,11.847   c1.966,1.135,3.373,2.968,3.96,5.162c0.588,2.193,0.286,4.483-0.849,6.45s-2.968,3.373-5.162,3.96   c-2.192,0.588-4.483,0.285-6.45-0.849c-3.358-1.939-15.845-11.447-25.746-20.898C275.393,340.247,276.504,338.341,277.334,336.291z    M376.109,327.5c0-4.481,3.488-8.155,7.891-8.469v16.938C379.597,335.655,376.109,331.981,376.109,327.5z M384,304.015   c-1.237,0.032-2.449,0.159-3.632,0.375c-3.255-13.331-5.26-28.983-5.26-32.891c0-4.687,3.813-8.5,8.5-8.5   c0.132,0,0.261-0.013,0.391-0.02V304.015z M362.72,318.967c-13.364-3.828-28.369-10.092-31.858-12.106   c-4.059-2.344-5.454-7.552-3.111-11.612c1.135-1.966,2.968-3.373,5.161-3.96c2.193-0.588,4.484-0.286,6.449,0.849   c3.522,2.034,16.424,11.911,26.323,21.451C364.473,315.233,363.474,317.039,362.72,318.967z M331.862,348.139   c3.511-2.027,17.949-8.034,30.961-11.846c0.83,2.05,1.941,3.955,3.286,5.671c-9.818,9.367-22.296,18.905-25.746,20.897   c-4.059,2.343-9.267,0.948-11.611-3.111C326.407,355.691,327.803,350.482,331.862,348.139z M380.848,350.695   c1.03,0.166,2.083,0.262,3.152,0.289v41.01c-4.636-0.059-8.391-3.844-8.391-8.495C375.609,379.6,377.604,364.007,380.848,350.695z    M384,248.02c-0.13-0.007-0.259-0.02-0.391-0.02c-12.958,0-23.5,10.542-23.5,23.5c0,3.198,0.778,10.549,2.18,19.074   c-6.641-5.445-12.61-9.798-15.428-11.425c-5.436-3.139-11.769-3.972-17.832-2.348c-3.78,1.013-7.172,2.906-9.951,5.505   c-2.78-2.599-6.172-4.492-9.951-5.505c-6.063-1.625-12.396-0.792-17.832,2.348c-2.816,1.626-8.785,5.979-15.427,11.425   c1.402-8.525,2.18-15.875,2.18-19.074c0-12.958-10.542-23.5-23.5-23.5s-23.5,10.542-23.5,23.5c0,3.198,0.778,10.549,2.18,19.074   c-6.641-5.445-12.61-9.798-15.428-11.425c-5.436-3.139-11.769-3.972-17.832-2.348c-3.766,1.009-7.146,2.894-9.92,5.479   c-2.774-2.585-6.154-4.47-9.92-5.479c-6.063-1.625-12.396-0.792-17.833,2.348c-2.816,1.626-8.785,5.979-15.427,11.425   c1.402-8.524,2.18-15.875,2.18-19.073c0-12.47-9.764-22.697-22.047-23.451v-9.838c4.365-0.989,7.358-2.739,9.922-4.244   c3.043-1.787,5.053-2.967,9.826-2.967s6.784,1.181,9.827,2.967c3.818,2.242,8.57,5.033,17.421,5.033   c8.843,0,13.59-2.792,17.405-5.035c3.036-1.786,5.041-2.965,9.8-2.965c4.757,0,6.762,1.179,9.796,2.964   c3.813,2.244,8.56,5.036,17.401,5.036c8.841,0,13.587-2.792,17.4-5.036c3.034-1.785,5.038-2.964,9.794-2.964   c4.746,0,6.747,1.178,9.775,2.962c3.811,2.244,8.553,5.038,17.389,5.038c8.841,0,13.587-2.792,17.4-5.036   c3.034-1.785,5.038-2.964,9.794-2.964c4.756,0,6.76,1.179,9.794,2.964c3.813,2.243,8.56,5.036,17.401,5.036   c8.839,0,13.584-2.792,17.396-5.037c3.032-1.785,5.035-2.963,9.787-2.963c4.748,0,6.75,1.179,9.779,2.963   c2.557,1.506,5.54,3.255,9.891,4.245V248.02z M127,406.976c12.517-0.502,22.547-10.837,22.547-23.476   c0-3.258-0.808-10.825-2.26-19.552c6.919,5.704,13.168,10.264,16.007,11.904c3.622,2.091,7.64,3.159,11.712,3.159   c2.041,0,4.096-0.269,6.121-0.811c3.766-1.009,7.146-2.894,9.92-5.479c2.774,2.584,6.154,4.47,9.92,5.479   c2.025,0.542,4.079,0.811,6.121,0.811c4.072,0,8.091-1.068,11.712-3.159c2.734-1.578,8.441-5.728,14.85-10.953   c-1.354,8.323-2.103,15.462-2.103,18.601c0,12.958,10.542,23.5,23.5,23.5s23.5-10.542,23.5-23.5c0-3.258-0.808-10.825-2.26-19.552   c6.919,5.704,13.168,10.264,16.008,11.904c3.692,2.131,7.726,3.144,11.71,3.144c5.9,0,11.68-2.231,16.073-6.329   c4.393,4.098,10.173,6.329,16.073,6.329c3.984,0,8.02-1.013,11.71-3.144c2.734-1.579,8.441-5.728,14.85-10.953   c-1.353,8.322-2.103,15.462-2.103,18.601c0,12.922,10.483,23.438,23.391,23.497v9.791c-4.365,0.989-7.358,2.739-9.922,4.244   c-3.043,1.787-5.053,2.967-9.826,2.967s-6.784-1.181-9.827-2.967c-3.818-2.242-8.57-5.033-17.421-5.033   c-8.843,0-13.59,2.792-17.405,5.035c-3.036,1.786-5.041,2.965-9.8,2.965c-4.757,0-6.762-1.179-9.796-2.964   c-3.813-2.244-8.56-5.036-17.401-5.036c-8.841,0-13.587,2.792-17.4,5.036c-3.034,1.785-5.038,2.964-9.794,2.964   c-4.746,0-6.747-1.178-9.775-2.962c-3.811-2.244-8.553-5.038-17.389-5.038c-8.841,0-13.587,2.792-17.4,5.036   c-3.034,1.785-5.038,2.964-9.794,2.964c-4.756,0-6.76-1.179-9.794-2.964c-3.813-2.243-8.56-5.036-17.401-5.036   c-8.839,0-13.584,2.792-17.396,5.037c-3.032,1.785-5.035,2.963-9.787,2.963c-4.748,0-6.75-1.179-9.779-2.963   c-2.557-1.506-5.54-3.255-9.891-4.245V406.976z M191,55.5c0-22.332,18.168-40.5,40.5-40.5h48c22.332,0,40.5,18.168,40.5,40.5V144   H191V55.5z M127.5,159h256c0.276,0,0.5,0.224,0.5,0.5v24.525c-0.166-0.011-0.333-0.025-0.5-0.025c-1.97,0-3.91,0.8-5.3,2.2   c-1.4,1.39-2.2,3.33-2.2,5.3c0,1.97,0.8,3.91,2.2,5.3c1.39,1.4,3.33,2.2,5.3,2.2c0.167,0,0.333-0.014,0.5-0.025v23.349   c-0.734-0.379-1.47-0.811-2.279-1.287c-3.811-2.244-8.554-5.037-17.391-5.037c-8.839,0-13.583,2.792-17.396,5.037   c-3.032,1.785-5.035,2.963-9.788,2.963c-4.756,0-6.761-1.179-9.794-2.964c-3.813-2.244-8.559-5.036-17.4-5.036   s-13.587,2.792-17.401,5.036c-3.034,1.785-5.038,2.964-9.794,2.964c-4.747,0-6.747-1.179-9.776-2.962   c-3.81-2.244-8.552-5.038-17.388-5.038c-8.841,0-13.587,2.792-17.4,5.036c-3.034,1.785-5.038,2.964-9.794,2.964   c-4.757,0-6.761-1.179-9.796-2.964c-3.813-2.244-8.56-5.036-17.402-5.036c-8.843,0-13.59,2.792-17.404,5.035   c-3.036,1.785-5.041,2.965-9.8,2.965c-4.773,0-6.783-1.181-9.826-2.967c-3.819-2.242-8.571-5.033-17.422-5.033   c-8.851,0-13.603,2.791-17.421,5.033c-0.827,0.485-1.577,0.924-2.327,1.308v-23.366c0.167,0.011,0.333,0.025,0.5,0.025   c1.97,0,3.91-0.8,5.3-2.2c1.4-1.39,2.2-3.33,2.2-5.3c0-1.97-0.8-3.91-2.2-5.3c-1.39-1.4-3.33-2.2-5.3-2.2   c-0.167,0-0.333,0.014-0.5,0.025V159.5C127,159.224,127.224,159,127.5,159z M383.5,496h-256c-0.276,0-0.5-0.224-0.5-0.5v-24.525   c0.167,0.011,0.333,0.025,0.5,0.025c1.97,0,3.91-0.8,5.3-2.2c1.4-1.39,2.2-3.33,2.2-5.3c0-1.97-0.8-3.91-2.2-5.3   c-1.39-1.4-3.33-2.2-5.3-2.2c-0.167,0-0.333,0.014-0.5,0.025v-23.349c0.734,0.379,1.47,0.811,2.279,1.287   c3.811,2.244,8.554,5.037,17.391,5.037c8.839,0,13.583-2.792,17.396-5.037c3.032-1.785,5.035-2.963,9.788-2.963   c4.756,0,6.761,1.179,9.794,2.964c3.813,2.244,8.559,5.036,17.4,5.036s13.587-2.792,17.401-5.036   c3.034-1.785,5.038-2.964,9.794-2.964c4.747,0,6.747,1.179,9.776,2.962c3.81,2.244,8.552,5.038,17.388,5.038   c8.841,0,13.587-2.792,17.4-5.036c3.034-1.785,5.038-2.964,9.794-2.964c4.757,0,6.761,1.179,9.796,2.964   c3.813,2.244,8.56,5.036,17.402,5.036c8.843,0,13.59-2.792,17.404-5.035c3.036-1.785,5.041-2.965,9.8-2.965   c4.773,0,6.783,1.181,9.826,2.967c3.819,2.242,8.571,5.033,17.422,5.033c8.851,0,13.603-2.791,17.421-5.033   c0.827-0.485,1.577-0.924,2.327-1.308v23.366c-0.166-0.011-0.333-0.025-0.5-0.025c-1.97,0-3.91,0.8-5.3,2.2   c-1.4,1.39-2.2,3.33-2.2,5.3c0,1.97,0.8,3.91,2.2,5.3c1.39,1.4,3.33,2.2,5.3,2.2c0.167,0,0.334-0.014,0.5-0.025V495.5   C384,495.776,383.776,496,383.5,496z" fill="#79b38a"></path>
	<path d="M159.5,199c1.97,0,3.91-0.8,5.3-2.2c1.4-1.39,2.2-3.33,2.2-5.3c0-1.97-0.8-3.91-2.2-5.3c-1.39-1.4-3.33-2.2-5.3-2.2   c-1.98,0-3.91,0.8-5.3,2.2c-1.4,1.39-2.2,3.33-2.2,5.3c0,1.97,0.8,3.91,2.2,5.3C155.59,198.2,157.53,199,159.5,199z" fill="#79b38a"></path>
	<path d="M223.5,199c1.97,0,3.91-0.8,5.3-2.2c1.4-1.39,2.2-3.33,2.2-5.3c0-1.97-0.8-3.91-2.2-5.3c-1.39-1.4-3.33-2.2-5.3-2.2   c-1.97,0-3.91,0.8-5.3,2.2c-1.4,1.39-2.2,3.33-2.2,5.3c0,1.97,0.8,3.91,2.2,5.3C219.59,198.2,221.53,199,223.5,199z" fill="#79b38a"></path>
	<path d="M255.5,199c1.97,0,3.91-0.8,5.3-2.2c1.4-1.39,2.2-3.33,2.2-5.3c0-1.97-0.8-3.91-2.2-5.3c-1.39-1.4-3.33-2.2-5.3-2.2   c-1.98,0-3.91,0.8-5.3,2.2c-1.4,1.39-2.2,3.33-2.2,5.3c0,1.97,0.8,3.91,2.2,5.3C251.59,198.2,253.53,199,255.5,199z" fill="#79b38a"></path>
	<path d="M287.5,199c1.97,0,3.91-0.8,5.3-2.2c1.4-1.39,2.2-3.32,2.2-5.3s-0.8-3.91-2.2-5.3c-1.39-1.4-3.33-2.2-5.3-2.2   c-1.97,0-3.91,0.8-5.3,2.2c-1.4,1.39-2.2,3.33-2.2,5.3c0,1.97,0.8,3.91,2.2,5.3C283.59,198.2,285.53,199,287.5,199z" fill="#79b38a"></path>
	<path d="M319.5,199c1.97,0,3.91-0.8,5.3-2.2c1.4-1.39,2.2-3.33,2.2-5.3c0-1.97-0.8-3.91-2.2-5.3c-1.39-1.4-3.33-2.2-5.3-2.2   c-1.97,0-3.91,0.8-5.3,2.2c-1.4,1.39-2.2,3.33-2.2,5.3c0,1.97,0.8,3.91,2.2,5.3C315.59,198.2,317.53,199,319.5,199z" fill="#79b38a"></path>
	<path d="M351.5,199c1.97,0,3.91-0.8,5.3-2.2c1.4-1.39,2.2-3.33,2.2-5.3c0-1.97-0.8-3.91-2.2-5.3c-1.39-1.4-3.33-2.2-5.3-2.2   c-1.98,0-3.91,0.8-5.3,2.2c-1.4,1.39-2.2,3.32-2.2,5.3c0,1.97,0.8,3.91,2.2,5.3C347.59,198.2,349.53,199,351.5,199z" fill="#79b38a"></path>
	<path d="M191.5,199c1.97,0,3.91-0.8,5.3-2.2c1.4-1.39,2.2-3.33,2.2-5.3c0-1.98-0.8-3.91-2.2-5.3c-1.39-1.4-3.33-2.2-5.3-2.2   c-1.97,0-3.91,0.8-5.3,2.2c-1.4,1.39-2.2,3.33-2.2,5.3c0,1.97,0.8,3.91,2.2,5.3C187.59,198.2,189.53,199,191.5,199z" fill="#79b38a"></path>
	<path d="M159.5,456c-1.97,0-3.91,0.8-5.3,2.2c-1.4,1.39-2.2,3.33-2.2,5.3c0,1.97,0.8,3.91,2.2,5.3c1.39,1.4,3.33,2.2,5.3,2.2   c1.97,0,3.91-0.8,5.3-2.2c1.4-1.39,2.2-3.33,2.2-5.3c0-1.97-0.8-3.91-2.2-5.3C163.41,456.8,161.47,456,159.5,456z" fill="#79b38a"></path>
	<path d="M223.5,456c-1.97,0-3.91,0.8-5.3,2.2c-1.4,1.39-2.2,3.33-2.2,5.3c0,1.97,0.8,3.91,2.2,5.3c1.39,1.4,3.33,2.2,5.3,2.2   c1.97,0,3.91-0.8,5.3-2.2c1.4-1.39,2.2-3.33,2.2-5.3c0-1.97-0.8-3.91-2.2-5.3C227.41,456.8,225.47,456,223.5,456z" fill="#79b38a"></path>
	<path d="M255.5,456c-1.97,0-3.91,0.8-5.3,2.2c-1.4,1.39-2.2,3.33-2.2,5.3c0,1.97,0.8,3.91,2.2,5.3c1.39,1.4,3.33,2.2,5.3,2.2   c1.97,0,3.91-0.8,5.3-2.2c1.4-1.39,2.2-3.33,2.2-5.3c0-1.97-0.8-3.91-2.2-5.3C259.41,456.8,257.47,456,255.5,456z" fill="#79b38a"></path>
	<path d="M287.5,456c-1.97,0-3.91,0.8-5.3,2.2c-1.4,1.39-2.2,3.33-2.2,5.3c0,1.97,0.8,3.91,2.2,5.3c1.39,1.4,3.33,2.2,5.3,2.2   c1.97,0,3.91-0.8,5.3-2.2c1.4-1.39,2.2-3.33,2.2-5.3c0-1.97-0.8-3.91-2.2-5.3C291.41,456.8,289.47,456,287.5,456z" fill="#79b38a"></path>
	<path d="M319.5,456c-1.97,0-3.91,0.8-5.3,2.2c-1.4,1.39-2.2,3.33-2.2,5.3c0,1.97,0.8,3.91,2.2,5.3c1.39,1.4,3.33,2.2,5.3,2.2   c1.97,0,3.91-0.8,5.3-2.2c1.4-1.39,2.2-3.33,2.2-5.3c0-1.97-0.8-3.91-2.2-5.3C323.41,456.8,321.47,456,319.5,456z" fill="#79b38a"></path>
	<path d="M351.5,456c-1.97,0-3.91,0.8-5.3,2.2c-1.4,1.39-2.2,3.33-2.2,5.3c0,1.97,0.8,3.91,2.2,5.3c1.39,1.4,3.33,2.2,5.3,2.2   c1.98,0,3.91-0.8,5.3-2.2c1.4-1.39,2.2-3.33,2.2-5.3c0-1.97-0.8-3.91-2.2-5.3C355.41,456.8,353.48,456,351.5,456z" fill="#79b38a"></path>
	<path d="M191.5,456c-1.97,0-3.91,0.8-5.3,2.2c-1.4,1.39-2.2,3.33-2.2,5.3c0,1.97,0.8,3.91,2.2,5.3c1.39,1.4,3.33,2.2,5.3,2.2   c1.97,0,3.91-0.8,5.3-2.2c1.4-1.39,2.2-3.33,2.2-5.3c0-1.97-0.8-3.91-2.2-5.3C195.41,456.8,193.47,456,191.5,456z" fill="#79b38a"></path>
</g>
</svg>