<svg xmlns="http://www.w3.org/2000/svg" xmlns:xlink="http://www.w3.org/1999/xlink" version="1.1" id="svg-2461" x="0px" y="0px" viewBox="0 0 511 511" style="enable-background:new 0 0 511 511;" xml:space="preserve" width="512px" height="512px">
<g>
	<path d="M248,431.5v11.01l-9.535-5.505c-3.587-2.072-8.174-0.842-10.245,2.745c-2.071,3.587-0.842,8.174,2.745,10.245l9.535,5.505   l-9.535,5.505c-3.587,2.071-4.816,6.658-2.745,10.245c1.389,2.406,3.91,3.751,6.502,3.751c1.272,0,2.562-0.324,3.743-1.006   L248,468.49v11.01c0,4.142,3.358,7.5,7.5,7.5s7.5-3.358,7.5-7.5v-11.01l9.535,5.505c1.181,0.682,2.471,1.006,3.743,1.006   c2.592,0,5.113-1.346,6.502-3.751c2.071-3.587,0.842-8.174-2.745-10.245L270.5,455.5l9.535-5.505   c3.587-2.071,4.816-6.658,2.745-10.245s-6.658-4.816-10.245-2.745L263,442.51V431.5c0-4.142-3.358-7.5-7.5-7.5   S248,427.358,248,431.5z" fill="#79b38a"></path>
	<path d="M403.54,355.759c2.193-3.572,3.46-7.77,3.46-12.259c0-10.336-6.71-19.128-16-22.266v-24.132   c27.395-31.522,44-72.659,44-117.602C435,80.523,354.477,0,255.5,0S76,80.523,76,179.5c0,44.943,16.605,86.08,44,117.602v24.132   c-9.29,3.138-16,11.93-16,22.266c0,4.489,1.267,8.688,3.46,12.259C86.735,363.814,72,383.962,72,407.5   c0,30.603,24.897,55.5,55.5,55.5s55.5-24.897,55.5-55.5c0-23.538-14.735-43.686-35.46-51.741c2.193-3.572,3.46-7.77,3.46-12.259   c0-10.336-6.71-19.128-16-22.266v-8.806c30.149,27.355,69.613,44.611,113,46.404v10.403c-9.29,3.138-16,11.93-16,22.266   c0,4.489,1.267,8.688,3.46,12.259C214.735,411.814,200,431.962,200,455.5c0,30.603,24.897,55.5,55.5,55.5s55.5-24.897,55.5-55.5   c0-23.538-14.735-43.686-35.46-51.741c2.193-3.572,3.46-7.77,3.46-12.259c0-10.336-6.71-19.128-16-22.266v-10.403   c43.387-1.793,82.851-19.048,113-46.404v8.806c-9.29,3.138-16,11.93-16,22.266c0,4.489,1.267,8.688,3.46,12.259   C342.735,363.814,328,383.962,328,407.5c0,30.603,24.897,55.5,55.5,55.5s55.5-24.897,55.5-55.5   C439,383.962,424.265,363.814,403.54,355.759z M168,407.5c0,22.332-18.168,40.5-40.5,40.5S87,429.832,87,407.5   s18.168-40.5,40.5-40.5S168,385.168,168,407.5z M127.5,352c-4.687,0-8.5-3.813-8.5-8.5s3.813-8.5,8.5-8.5s8.5,3.813,8.5,8.5   S132.187,352,127.5,352z M296,455.5c0,22.332-18.168,40.5-40.5,40.5S215,477.832,215,455.5s18.168-40.5,40.5-40.5   S296,433.168,296,455.5z M255.5,400c-4.687,0-8.5-3.813-8.5-8.5s3.813-8.5,8.5-8.5s8.5,3.813,8.5,8.5S260.187,400,255.5,400z    M255.5,344C164.794,344,91,270.206,91,179.5S164.794,15,255.5,15S420,88.794,420,179.5S346.206,344,255.5,344z M375,343.5   c0-4.687,3.813-8.5,8.5-8.5s8.5,3.813,8.5,8.5s-3.813,8.5-8.5,8.5S375,348.187,375,343.5z M383.5,448   c-22.332,0-40.5-18.168-40.5-40.5s18.168-40.5,40.5-40.5s40.5,18.168,40.5,40.5S405.832,448,383.5,448z" fill="#79b38a"></path>
	<path d="M410.78,391.75c-2.071-3.587-6.658-4.817-10.245-2.745L391,394.51V383.5c0-4.142-3.358-7.5-7.5-7.5s-7.5,3.358-7.5,7.5   v11.01l-9.535-5.505c-3.588-2.072-8.175-0.842-10.245,2.745c-2.071,3.587-0.842,8.174,2.745,10.245l9.535,5.505l-9.535,5.505   c-3.587,2.071-4.816,6.658-2.745,10.245c1.389,2.406,3.91,3.751,6.502,3.751c1.272,0,2.562-0.324,3.743-1.006L376,420.49v11.01   c0,4.142,3.358,7.5,7.5,7.5s7.5-3.358,7.5-7.5v-11.01l9.535,5.505c1.181,0.682,2.471,1.006,3.743,1.006   c2.592,0,5.113-1.346,6.502-3.751c2.071-3.587,0.842-8.174-2.745-10.245L398.5,407.5l9.535-5.505   C411.622,399.924,412.851,395.337,410.78,391.75z" fill="#79b38a"></path>
	<path d="M120,383.5v11.01l-9.535-5.505c-3.588-2.072-8.174-0.842-10.245,2.745s-0.842,8.174,2.745,10.245l9.535,5.505l-9.535,5.505   c-3.587,2.071-4.816,6.658-2.745,10.245c1.389,2.406,3.91,3.751,6.502,3.751c1.272,0,2.562-0.324,3.743-1.006L120,420.49v11.01   c0,4.142,3.358,7.5,7.5,7.5s7.5-3.358,7.5-7.5v-11.01l9.535,5.505c1.181,0.682,2.471,1.006,3.743,1.006   c2.592,0,5.113-1.346,6.502-3.751c2.071-3.587,0.842-8.174-2.745-10.245L142.5,407.5l9.535-5.505   c3.587-2.071,4.816-6.658,2.745-10.245c-2.071-3.587-6.659-4.817-10.245-2.745L135,394.51V383.5c0-4.142-3.358-7.5-7.5-7.5   S120,379.358,120,383.5z" fill="#79b38a"></path>
</g>
</svg>